<svg xmlns="http://www.w3.org/2000/svg" version="1.0" viewBox="0 0 600 600"><defs/><path d="M0 300v300h600V0H0v300zM279.6 41.7c-.4 1.6.4 7.7 1.8 13.8 5.6 25.9 5.7 32 .6 37.9-8 9-35 13.8-45.2 8-5.8-3.4-7.7-8.8-12.4-34.9-.9-5.5-2.3-11.2-3.1-12.7-.7-1.5-1.3-2.9-1.3-3.2 0-.6 13.8-3 14.7-2.5.4.2.8 2.4.9 4.9.2 2.5.7 6.9 1.3 9.7.6 2.9 1.6 7.9 2.2 11 3 16.8 5 19.3 15.3 19.3 6.4 0 10.9-1.4 15.5-4.8l3.3-2.5-.5-7.6c-.3-4.2-1-9.6-1.5-12.1-3.5-16.9-4.5-20.7-5.9-22.2-1.7-1.9-2-1.8 5.2-3.6 2.2-.5 5.3-1 6.8-1.1 2.6-.1 2.8.1 2.3 2.6zm73 3c2.8 1.1 8.1 4.1 11.6 6.7 3.6 2.5 7.1 4.6 7.7 4.6 2.1 0 1.1 1.8-3.4 5.9-4.4 4-6.5 4.5-6.5 1.6 0-1.5-4.9-5.9-8.9-8-1.5-.7-5.4-1.9-8.8-2.6-15.6-3.2-27.5 6.4-26.1 21.2.6 5.8 4.5 11.9 9.4 14.8 5 3 14.2 4.4 20.1 3.1 6.6-1.4 10.1-2.9 10.7-4.6 1.1-2.8 3.1-1.3 5.4 3.9 2.6 6 2.8 7.9.7 7.1-.8-.3-4.5.5-8.2 1.8-9 3.1-22.2 3-30.4-.1-15.4-5.9-23.8-19.4-20.9-33.8 2.2-10.8 9-19.2 18.2-22.5 7-2.5 21.8-2 29.4.9zM196.5 64c3 5.9 3.1 7 .7 7-1.1 0-5.4 2.1-9.8 4.7-4.4 2.7-10.1 5.9-12.7 7.3-2.6 1.4-5.9 3.4-7.3 4.5l-2.6 2.1 2.8 5.2c3.3 6.1 4.6 6.2 12 1.1 2.3-1.6 4.5-2.9 4.8-2.9 1.5 0 7.6-4.6 7.6-5.7 0-3.1 2.2-1.8 5.5 3.2 3.4 5.4 3.8 8 1.1 6.9-1.6-.6-21.6 10.6-21.6 12.1 0 3 9.3 18 11.7 18.9 2.2.9.3 2.8-6.3 6.6-5.9 3.3-7.9 3.8-7 1.5.3-.8-.8-3.6-2.3-6.2-5-8.3-16.3-27.7-18.3-31.3-1.1-1.9-3.3-5.2-5-7.3-1.6-2.1-2.8-4-2.7-4.1.6-.4 19.2-11.2 27.1-15.6 3.7-2.1 8-4.7 9.7-5.9 1.6-1.2 3.4-2.1 4-2.1.5 0 1.8-1.1 2.8-2.5 1-1.3 2.1-2.5 2.5-2.5.4 0 1.9 2.2 3.3 5zm211.8-2.1c6.9 3.9 8.2 4.6 8.7 4.9.3.2-.5 1.1-1.6 2-1.2.9-3.3 3.7-4.7 6.2-1.3 2.5-3.3 5.9-4.3 7.7-1 1.7-1.5 3.5-1.1 3.9.6.6 14-1.5 27.5-4.2 1.2-.2 2.2-1.1 2.2-1.9 0-.8.7-1.5 1.5-1.5 3.1 0 18.5 9.1 18.5 10.9 0 .5-2.6 1.1-5.7 1.4-3.2.4-8.9 1.1-12.8 1.7-3.8.6-8.9 1.4-11.3 1.7-2.3.3-4.5 1-4.8 1.4-.5.8.3 6.2 2.6 18.4 3.4 17.7 4.2 21 5.1 22.7 1.6 2.9.2 3.5-3.4 1.4-1.8-1.1-5.6-3.2-8.4-4.8-5.9-3.3-7.1-4.7-5.3-5.8 1.1-.7 1-3.1-.5-13.2-2.5-17-2.5-17-7.7-16.2-2.4.4-4.9 1.1-5.6 1.7-2.4 1.9-8.2 12.8-8.2 15.3 0 1.4-.3 2.4-.8 2.2-3.8-1.6-13.2-7.5-13.2-8.2 0-.5.6-1.4 1.4-2 1.4-1 8.8-13.6 15.8-26.6 1.6-3 3.3-5.9 3.8-6.5 2.2-2.7 6-10.6 6-12.4 0-2.6 1.9-2.7 6.3-.2zm-87 67.2c15.1 2.2 22.9 4 34.2 7.8 36.2 12.4 66.6 35.9 88.3 68.3 2.9 4.2 5.2 7.9 5.2 8.1 0 .2 1.8 3.7 4 7.8 6.6 11.9 13.9 32.7 16 45.4.6 3.8 1.6 9.4 2.1 12.4 1.2 6.9 1.2 34.1 0 41.2-.5 3-1.4 8.8-2.1 12.9-1.3 8.7-1.9 10.9-6.7 24.5-12.2 34.9-35.8 65-67.5 86.3-4.2 2.9-7.9 5.2-8.1 5.2-.2 0-3.7 1.8-7.8 4-11.9 6.6-32.7 13.9-45.4 16-3.8.6-9.4 1.6-12.4 2.1-6.9 1.2-34.1 1.2-41.2 0-3-.5-8.8-1.4-12.9-2.1-8.7-1.3-10.9-1.9-24.5-6.7-34.9-12.2-65.2-35.9-86.3-67.5-2.9-4.2-5.2-7.9-5.2-8.1 0-.2-1.8-3.7-4-7.8-6.6-11.9-13.9-32.7-16-45.4-.6-3.9-1.6-9.4-2.1-12.4-2.2-12.8-.8-39.4 3-59.8 1.9-9.8 9.5-30.2 15.3-40.7 2.1-3.8 3.8-7.1 3.8-7.3 0-1 10.9-16.5 16.1-22.8 6.3-7.7 17.7-19 25.4-25.2 4.9-3.9 20-14.3 20.8-14.3.2 0 3.7-1.8 7.8-4 7.4-4.1 19.9-9.1 31.9-12.8 6-1.9 10.2-2.7 25-5.1 7.9-1.3 34.9-1.3 43.3 0zm116.3 334.7c.3 3.1.6 6.1.5 6.6-.1.5-3.4.9-7.3 1-5.7.2-8.4.8-12.3 2.8-8.9 4.7-13.5 11.6-10 15.2 2.5 2.5 4.3 2 16.1-3.8 12.2-6 16.6-7.1 22.2-5.7 3.7 1.1 8.9 5.6 11.1 9.8 4.7 9.2-4.4 23.5-19.6 30.6-9.2 4.3-21.4 7.2-22.5 5.4-1-1.7-2.2-11.7-1.4-12.4.3-.4 1.7 0 3.1.7 2.1 1.1 3.4 1.1 7.8 0 10.7-2.7 19.7-9.2 21.3-15.6.7-2.6-1.8-6.4-4.2-6.4-.7 0-6.4 2.4-12.6 5.4-18.9 9.1-21.9 9.3-29 1.8-7.5-7.8-7.3-14.8.5-24.4 5-6.2 17.5-13.1 25.4-14.2 2.7-.3 5.8-1.3 6.9-2 2.7-2 3.2-1.3 4 5.2zM185.7 467c7.2 3.6 9.4 5.7 7.2 7-1.2.8-1.1 2.1.9 9.2 1.3 4.6 3.1 11.4 4.2 15.3 3.9 14.4 5.7 20 6.6 19.9 1.7-.2 15.4-26.9 15.4-30 0-1.3.3-2.4.8-2.4.6 0 6.3 2.8 12 5.9l2.3 1.2-2.9 2.7c-1.5 1.5-6.1 9.2-10.1 17.2-4.1 8-8.1 15.6-9.1 17-2.6 3.9-5 9.6-5 11.9 0 1.2-.5 2.1-1.1 2.1-.8 0-8.4-3.7-13.7-6.6-.2-.1.1-1.1.7-2.2.8-1.4.5-3.7-1-8.8-1.1-3.8-2.9-10.2-4-14.2s-2.5-9.2-3.3-11.5c-.7-2.3-1.9-6.1-2.6-8.5-.7-2.3-1.6-4.2-2-4.2-1.5 0-16.3 29.8-15.6 31.5.3.8.1 1.7-.3 2-.9.5-12.7-5.1-13.6-6.5-.3-.4.7-2.1 2.1-3.6 1.4-1.6 6.1-9.7 10.3-17.9 4.2-8.3 9.2-17.7 11-20.9 1.7-3.2 3-6.5 2.7-7.3-.8-2.1 1.6-1.6 8.1 1.7zm193.9 20.6c-.6 1.4 2.8 13 5.9 19.9 1.3 3.1 6 15.4 9.1 23.8.9 2.6 2.6 5.4 3.7 6.2 1.2.8 1.9 1.7 1.6 2-.8.7-15 6.5-16.1 6.5-.5 0-.7-.9-.3-2 .6-1.9-1.9-11.1-5-18.5-2-4.7-7-17.9-9.2-24.8-.9-2.6-2.7-5.8-4-7.1-2.7-2.7-2.6-2.7 3.7-4.6 2.5-.7 4.9-1.7 5.5-2.2.5-.4 2-.8 3.3-.8 1.8 0 2.3.4 1.8 1.6zm-25.1 13.1c-1 2.1-5.1 10.1-9.3 17.8-13.5 25.2-14.2 26.5-14.2 28.1 0 1.2.6 1.5 2.3 1.1 1.2-.4 4.2-.9 6.7-1.2 11.1-1.4 18.7-2.8 20.7-3.8 1.3-.6 2.5-.8 2.7-.6.2.2.5 3.1.7 6.4.2 5.9.2 6-2.3 5.7-2.3-.2-22.7 2.3-39.8 4.9-10.9 1.7-11.5 1.7-11.8-.6-.1-1.1 2-6.3 4.9-11.5 2.8-5.2 6.2-11.5 7.5-14 1.2-2.5 4.6-8.6 7.3-13.5 2.8-5 5.1-9.4 5.1-9.9 0-1.7-26.3 1.5-28.7 3.6-2.1 1.7-3.3-.2-4-6.6-.6-5.7-.6-5.7 1.9-5.1 1.3.3 11.8-.7 23.4-2.4 31.4-4.5 29.8-4.6 26.9 1.6zm-85-2.2c6.9.8 9.1 2.1 7.4 4.1-1.3 1.6-.7 4.8 3.6 17.9 1.8 5.5 5.2 16 7.6 23.3 2.3 7.3 4.6 13.5 5.1 13.8.4.3.8 1.4.8 2.5 0 1.5-.5 1.8-2.2 1.5-1.3-.2-5.6-1-9.5-1.7-7.5-1.3-8.1-1.7-6.1-3.7.9-.9.8-2.4-.2-6.6l-1.3-5.4-5.6-1.1c-5.5-1-8.5-1.5-16.6-2.7-3.9-.6-4.1-.5-7.2 4.2-2.4 3.8-2.9 5.3-2.1 6.7.5 1 .8 2.1.5 2.3-.6.7-16.1-1.7-17.1-2.7-.5-.5.4-2 2.1-3.6 2.6-2.5 7-8.7 26.6-37.7 3.8-5.8 4.6-7.6 4.1-10-.6-2.6-.4-2.8 1.7-2.3 1.3.3 5.1.9 8.4 1.2z"/><path d="M296 170.7c-1.3 2.7-4.1 7.4-6.2 10.5-2.1 3.1-3.8 5.9-3.8 6.2 0 .3-1.4 2.9-3.2 5.8-4.9 8.3-13.8 23.8-16.8 29.3-1.4 2.7-3.3 6-4.1 7.2l-1.4 2.3h-38.2c-21 0-38.4.3-38.6.7-.5.7 3.3 7.8 13.3 25.3 2.1 3.6 6.4 11.2 9.7 17 3.3 5.8 7.6 13.3 9.6 16.7 2.1 3.4 3.7 6.7 3.7 7.5-.1 1.4-9.4 19.3-16.7 31.8-10.7 18.3-20 35.6-19.7 36.2.3.5 17.3.8 37.7.8 41.9 0 39.7-.4 43.7 7.7 1.4 2.6 4.6 8.3 7.2 12.6 2.7 4.3 4.8 8 4.8 8.1 0 .2 3 5.5 6.6 11.7 3.7 6.3 8.1 13.9 9.8 17 6.5 11.8 6.8 11.9 10.6 4.2 1.3-2.6 3.7-6.7 5.2-9s2.8-4.4 2.8-4.6c0-.3 2.9-5.6 6.5-11.8 3.6-6.3 8.6-15.1 11.3-19.7 2.6-4.6 5.9-10.1 7.5-12.3l2.7-3.9h38c32.1 0 38-.2 38-1.4 0-.8-2.5-5.9-5.6-11.3-3.1-5.4-7-12.3-8.6-15.3-1.6-3-3.3-5.9-3.8-6.5-.8-1-2.5-3.9-7.8-13.5-1.3-2.5-4-7.2-5.9-10.4-5.3-9.1-5.3-10.3.2-19.8 2.6-4.6 5.9-10.3 7.2-12.8 1.4-2.5 4-7 5.8-10 10.9-18.6 13.5-23.1 13.5-23.5 0-.3 1.4-2.7 3-5.3 1.7-2.7 3-5.2 3-5.6 0-.3-17.4-.6-38.7-.6h-38.8l-2.6-4.3c-2.6-4.1-9.8-16.5-17.6-30.2-11.7-20.5-18.6-31.5-19.6-31.5-.7 0-2.3 2.1-3.7 4.7zm7.6 6c1.5 2.7 4.3 7.5 6.2 10.8 3.6 5.9 9 15.6 14.2 25 3.3 6.1 6.4 11.6 8.1 14.2.7 1.1.9 2.8.6 3.7-.6 1.4-4 1.6-32.7 1.6-36.2 0-35.3.2-31.1-7.4 1.2-2.3 4.1-7.5 6.3-11.6 2.3-4.1 4.9-8.7 5.9-10.2 1.1-1.4 1.9-2.9 1.9-3.2 0-1.3 16.2-27.6 17-27.6.5 0 2.1 2.1 3.6 4.7zm-47.8 59.2c1.1.7.9 1.8-1.2 5.7-5.2 10.1-12.2 20.9-13.6 21.2-.9.1-6.3-2.4-12-5.6-9.8-5.5-12.9-7.3-28.2-16.3-3.2-1.8-5.8-3.7-5.8-4.1 0-1.4 58.6-2.3 60.8-.9zm83.5 2.8c2.2 3.6 5.8 9.9 11.6 20.5 1.4 2.6 2.3 4.9 2 5.2-.3.3-4.1.9-8.4 1.3-7.7.6-8.2 2.1-.8 2.2 5.8.2 5.1 2.7-1.7 6.3-1.4.7-4.7 2.6-7.5 4.2-6.2 3.6-19 10.8-27.1 15.2-3.4 1.9-6.8 3.4-7.5 3.4-1.8 0-6.7-2.6-26.9-14.2-20.3-11.6-21-12.1-21-13.1 0-.5.9-1.1 2-1.4 3.6-.9 2.1-2.3-2.4-2.3-2.5 0-4.7-.4-5.1-1-.6-1 1.8-5.9 9.8-19.5l5.2-9 13-.5c7.2-.3 24.1-.7 37.7-.8l24.8-.2 2.3 3.7zm65.4-2.4c.8.9.6 1-6.2 5.1-18.7 11.1-37.7 21.6-39.1 21.6-1.5 0-5.2-4.6-8.4-10.5-1.2-2.2-3.4-6.3-5-9-3.8-6.4-3.7-7.3.3-7.8 5.8-.8 57.5-.2 58.4.6zm-208 5.9c2.1 1.1 6.1 3.3 8.8 4.8 2.8 1.5 9.3 5.3 14.5 8.5 5.2 3.2 11.4 6.9 13.8 8.2 5.8 3.4 5.6 6-1.8 17.3-1.9 3-4.4 7.2-5.4 9.3-2.2 4.8-4.1 4.5-7.3-1.3-1.4-2.5-3.8-6.4-5.4-8.7-1.6-2.3-2.9-4.4-2.9-4.7 0-.3-2.9-5.4-6.3-11.3-11-18.6-13.9-24.3-12.2-24.3.2 0 2.1 1 4.2 2.2zm209.3 1.3c0 .8-2.6 5.8-5.7 11.2-3.1 5.4-6.9 12-8.4 14.8-1.4 2.7-4.4 7.9-6.5 11.5-2.2 3.6-4.7 7.9-5.6 9.5-.9 1.7-2.3 3.1-3.1 3.3-.8.2-3.8-3.9-7.8-10.5-6.2-10.6-8.9-15.3-8.9-15.8 0-.7 36.2-21.5 37.6-21.5.5 0 2-.9 3.4-2 3-2.3 5-2.5 5-.5zm-157.9 35.7c2.4 3.9 5.1 8.3 5.9 9.7.8 1.4 4.1 6.9 7.3 12.2 3.1 5.3 5.7 9.9 5.7 10.2 0 .4 2.3 4.1 5 8.3 2.8 4.2 5 8.1 5 8.7 0 .5 1.6 3.2 3.5 5.8 1.9 2.7 3.5 5.4 3.5 5.9 0 .6 1.9 4.1 4.2 7.8 4.8 7.8 7.8 13.6 7.8 15.2 0 .7-5.5 1-17.2.8l-17.2-.3-2.6-4.5c-1.4-2.5-4-7-5.7-10-1.6-3-4.4-7.9-6.2-10.8-1.7-2.9-3.1-5.5-3.1-5.8 0-.3-.8-1.8-1.8-3.2-1.1-1.5-3.3-5.2-4.9-8.2-1.7-3-4.9-8.8-7.3-12.8-3-5.2-4-7.9-3.6-9.6.6-2.6 11.9-22 14.4-24.9.8-.9 1.8-1.7 2.2-1.7.4 0 2.7 3.2 5.1 7.2zm111.7-4.5c3.6 5.4 14.2 24.2 14.2 25.3 0 .7-2.2 4.9-4.8 9.4-6.9 11.6-15.5 26.4-18.4 31.6-6.4 11.5-11.3 19.7-12.6 21.2-1.3 1.6-3.5 1.8-17.4 1.8-17.7 0-18.3-.3-15-6.1 1.1-1.9 3.8-6.6 6.1-10.5 2.2-3.9 4.1-7.7 4.1-8.5 0-.8-.5-.5-1.3.7-.6 1.2-3.3 5.7-5.9 10-2.6 4.4-4.9 8.3-5.1 8.9-1.5 3.8-2.2-3.9-2.5-24.8-.4-30.3-.2-32 4.6-35.3 3.6-2.5 14.1-8.6 24.7-14.4 2.8-1.5 6.8-3.7 9-5 6.6-3.9 10.9-5.8 11.7-5.4.4.3-.8 3-2.6 6.2-3.5 6.2-12.1 21.5-15.5 27.4-1.2 2.1-3 5.4-4.1 7.3-1.1 1.9-2.9 5.1-4 7-1.1 1.9-2.9 5.1-4 7.1-1.1 1.9-2.8 4.7-3.7 6.1-1.3 2-1.4 2.5-.3 2.1 1.3-.4 10.4-15.2 11.6-19.1.4-.9 1-1.7 1.4-1.7.4 0 1.3-1.5 2.1-3.3.7-1.7 1.5-3.4 1.8-3.7.3-.3 1.2-1.6 2-3s4.3-7.5 7.9-13.5c3.5-6.1 7.3-12.6 8.4-14.5 4-7 4.8-7.3 7.6-3.3zm-106.3.3c1.9 1.1 5.2 3 7.3 4.2 2 1.2 7.3 4.1 11.7 6.6 4.4 2.4 9.1 5.2 10.5 6.2 1.4.9 5.3 3.2 8.8 5l6.2 3.3v28.8c0 15.9-.4 28.9-.8 28.9s-2.3-2.6-4.2-5.8c-1.8-3.1-3.9-6.4-4.6-7.2-.7-.8-2.5-4-4.1-7-1.6-3-3.9-7.2-5.1-9.3-1.2-2-3.1-5.3-4.2-7.2-1.1-1.9-3-5.2-4.2-7.3-1.1-2-3.3-6-4.8-8.7-1.4-2.8-3.8-6.8-5.2-9-1.3-2.2-4-6.9-5.8-10.5-1.9-3.6-4.2-7.7-5.2-9.1-.9-1.4-1.5-2.9-1.1-3.3.9-.8.8-.9 4.8 1.4zm-27.8 32.7c.4 1 2.5 4.7 4.6 8.3 2.2 3.6 5.2 8.7 6.7 11.5 1.4 2.7 3.8 6.8 5.2 9 5.5 8.7 13.8 24.2 13.8 25.8 0 1.6-2.8 1.7-33.6 1.7-33 0-33.5 0-32.9-2 .9-2.8 19.4-35 24.4-42.4 1.5-2.3 4-6.2 5.5-8.9 2.8-4.9 5.2-6 6.3-3zm155 3.3c4.3 7.5 5.9 10.3 9.1 15.5 6.4 10.6 16.2 27.6 16.2 28.1 0 .3.9 1.9 2.1 3.5 4.2 6 4.3 6-31.7 5.7-21.4-.2-32.9-.7-33.1-1.3-.2-.6 3.6-7.8 8.3-16 4.8-8.3 9.2-15.9 9.8-17 8.1-14.4 14.2-23.5 15.4-23.3.8.2 2.5 2.3 3.9 4.8zM298 395.1c0 20.9-.3 27-1.2 26.7-1.6-.6-12-17.6-21.1-34.8-1.6-3-3.2-6-3.7-6.5-2.1-2.6-5-8.8-5-10.5 0-1.9.7-2 15.5-2H298v27.1zm35-24.8c0 1.3-.4 2.7-.9 3.2-.5.6-1.8 2.6-2.9 4.5-1 1.9-6.3 11.1-11.7 20.5-5.4 9.3-10.7 18.7-11.8 20.7-1.1 2-2.4 3.5-2.9 3.2-.4-.3-.8-12.6-.8-27.5V368h31v2.3zM261.5 520.5c-6 8.4-7.1 10.3-6 11.4 1 1 14.7 3.2 15.5 2.4.2-.2-.4-3.2-1.4-6.6-1-3.4-2-7.4-2.3-9-.3-1.5-.8-2.9-1.2-3.1-.4-.3-2.4 2-4.6 4.9z"/></svg>